<svg version="1.1" xmlns="http://www.w3.org/2000/svg" viewBox="0 0 580 540" width="1160" height="1080">
  <!-- svg-source:excalidraw -->
  
  <defs>
    <style>
      @font-face {
        font-family: "Virgil";
        src: url("/public/ShadowsIntoLight-Regular.ttf");
      }
    </style>
  </defs>
  <g stroke-linecap="round" transform="translate(10 10) rotate(0 280 260)"><path d="M-0.12 -0.77 C156.96 1.53, 314.91 0.92, 559.85 0.62 M-0.24 -0.27 C154.02 -0.17, 308.16 -0.37, 559.95 -0.21 M559.82 -0.23 C559.7 174.93, 560.2 348.9, 560.31 520.25 M559.8 0.04 C559.33 126.33, 558.94 251.73, 559.99 519.71 M560.64 520.54 C423.7 518.43, 287.27 518.92, -0.73 519.38 M560.08 520.35 C346.99 517.87, 135.14 517.45, -0.01 520.38 M0.44 519.66 C1.39 354.18, 1.29 189.05, 0.43 -0.55 M-0.27 520.07 C0.94 392.07, 1.08 264.49, -0.24 0.34" stroke="#000000" stroke-width="1" fill="none"></path></g><g transform="translate(170 30) rotate(0 114.5 22.5)"><text x="0" y="32" font-family="Virgil, Segoe UI Emoji" font-size="36px" fill="#000000" text-anchor="start" style="white-space: pre;" direction="ltr">Welcome CJ! </text></g><g transform="translate(330 90) rotate(0 105.5 17.5)"><text x="0" y="25" font-family="Virgil, Segoe UI Emoji" font-size="28px" fill="#000000" text-anchor="start" style="white-space: pre;" direction="ltr">Total Managed</text></g><g transform="translate(70 90) rotate(0 78.5 17.5)"><text x="0" y="25" font-family="Virgil, Segoe UI Emoji" font-size="28px" fill="#000000" text-anchor="start" style="white-space: pre;" direction="ltr">Num Clients</text></g><g transform="translate(390 130) rotate(0 38.57142857142867 15.000000000000057)"><text x="0" y="21.000000000000117" font-family="Virgil, Segoe UI Emoji" font-size="24.0000000000001px" fill="#000000" text-anchor="start" style="white-space: pre;" direction="ltr">$$$$</text></g><g stroke-linecap="round"><g transform="translate(30.039366476982764 190.59373925052017) rotate(0 255.29901149955845 0.30504464012219046)"><path d="M-0.04 0.54 C196.37 -0.14, 391.99 1.17, 510.29 1.2 M0.21 -0.19 C148.19 -0.92, 297.05 -0.78, 510.64 1.09" stroke="#000000" stroke-width="1" fill="none"></path></g></g><g transform="translate(108.61619453497133 209.65404863374278) rotate(0 39.30809726748555 18.102413215289403)"><text x="0" y="25.20482643057882" font-family="Virgil, Segoe UI Emoji" font-size="28.963861144463078px" fill="#000000" text-anchor="start" style="white-space: pre;" direction="ltr">Client</text></g><g transform="translate(285.50263223865704 209.65404863374278) rotate(0 102.69240411130613 17.19729255452495)"><text x="0" y="24.394585109049885" font-family="Virgil, Segoe UI Emoji" font-size="27.515668087239906px" fill="#000000" text-anchor="start" style="white-space: pre;" direction="ltr">Contract Value</text></g><g stroke-linecap="round"><g transform="translate(49.66961945130447 248.96487289239832) rotate(0 235.6124438668428 0.5199386001904998)"><path d="M-0.33 0.19 C167.92 0.72, 334.85 0.77, 471.18 1.1 M0.07 -0.06 C124.03 0.61, 248.34 0.56, 471.55 1" stroke="#000000" stroke-width="1" fill="none"></path></g></g><g stroke-linecap="round"><g transform="translate(266.54455648996236 209.91455038722228) rotate(0 -0.40987140009576706 117.78430169533476)"><path d="M-0.21 -0.46 C-1.1 90.89, -2.3 182.48, 0.24 236.02 M0.67 -0.02 C-0.6 81.69, -0.73 163.66, -1.49 234.79" stroke="#000000" stroke-width="1" fill="none"></path></g></g><g transform="translate(70 270) rotate(0 90.89997493106046 103.18375532714964)"><text x="0" y="24.394585109049885" font-family="Virgil, Segoe UI Emoji" font-size="27.515668087239906px" fill="#000000" text-anchor="start" style="white-space: pre;" direction="ltr">Alice Adams</text><text x="0" y="58.78917021809977" font-family="Virgil, Segoe UI Emoji" font-size="27.515668087239906px" fill="#000000" text-anchor="start" style="white-space: pre;" direction="ltr">Bob Builder</text><text x="0" y="93.18375532714965" font-family="Virgil, Segoe UI Emoji" font-size="27.515668087239906px" fill="#000000" text-anchor="start" style="white-space: pre;" direction="ltr">Claire Cotton</text><text x="0" y="127.57834043619954" font-family="Virgil, Segoe UI Emoji" font-size="27.515668087239906px" fill="#000000" text-anchor="start" style="white-space: pre;" direction="ltr">Dan Daniels</text><text x="0" y="161.97292554524944" font-family="Virgil, Segoe UI Emoji" font-size="27.515668087239906px" fill="#000000" text-anchor="start" style="white-space: pre;" direction="ltr">Eve Evans</text><text x="0" y="196.3675106542993" font-family="Virgil, Segoe UI Emoji" font-size="27.515668087239906px" fill="#000000" text-anchor="start" style="white-space: pre;" direction="ltr"></text></g><g transform="translate(350 270) rotate(0 40.431185760842254 78.61619453497116)"><text x="40.43118576084231" y="22.44647781398847" font-family="Virgil, Segoe UI Emoji" font-size="25.157182251190772px" fill="#000000" text-anchor="middle" style="white-space: pre;" direction="ltr">$$$</text><text x="40.43118576084231" y="53.89295562797694" font-family="Virgil, Segoe UI Emoji" font-size="25.157182251190772px" fill="#000000" text-anchor="middle" style="white-space: pre;" direction="ltr">$</text><text x="40.43118576084231" y="85.33943344196541" font-family="Virgil, Segoe UI Emoji" font-size="25.157182251190772px" fill="#000000" text-anchor="middle" style="white-space: pre;" direction="ltr">$$</text><text x="40.43118576084231" y="116.78591125595388" font-family="Virgil, Segoe UI Emoji" font-size="25.157182251190772px" fill="#000000" text-anchor="middle" style="white-space: pre;" direction="ltr">$$$$</text><text x="40.43118576084231" y="148.23238906994234" font-family="Virgil, Segoe UI Emoji" font-size="25.157182251190772px" fill="#000000" text-anchor="middle" style="white-space: pre;" direction="ltr">$$</text></g><g transform="translate(110 130) rotate(0 16.285714285714334 15.000000000000057)"><text x="16.285714285714345" y="21.000000000000117" font-family="Virgil, Segoe UI Emoji" font-size="24.000000000000096px" fill="#000000" text-anchor="middle" style="white-space: pre;" direction="ltr">24</text></g><g transform="translate(287.85714285714266 470.7142857142858) rotate(0 -20.93406593406553 11.935286935287138)" stroke="none" fill="#000000"><path d="M -19.51,2.27 Q -19.51,2.27 -20.69,2.38 -21.87,2.49 -23.38,2.95 -24.90,3.41 -25.91,3.78 -26.92,4.16 -27.93,4.52 -28.94,4.88 -30.17,5.69 -31.40,6.49 -32.33,7.26 -33.27,8.03 -33.70,9.29 -34.14,10.56 -34.36,11.85 -34.58,13.14 -34.59,14.36 -34.61,15.59 -34.20,16.67 -33.80,17.74 -32.87,18.58 -31.94,19.41 -30.93,19.78 -29.92,20.15 -28.40,20.43 -26.88,20.71 -25.59,20.89 -24.30,21.07 -22.63,21.11 -20.96,21.16 -18.95,20.74 -16.93,20.33 -15.83,20.13 -14.73,19.93 -13.65,19.53 -12.58,19.14 -11.57,18.58 -10.56,18.03 -9.49,17.28 -8.42,16.53 -7.99,15.55 -7.57,14.58 -7.58,13.30 -7.59,12.02 -9.13,10.02 -10.67,8.02 -10.95,7.50 -11.23,6.98 -11.33,6.39 -11.43,5.81 -11.34,5.22 -11.25,4.64 -10.98,4.11 -10.71,3.58 -10.28,3.17 -9.85,2.76 -9.32,2.50 -8.78,2.25 -8.19,2.18 -7.60,2.11 -7.02,2.23 -6.44,2.36 -5.93,2.66 -5.42,2.96 -5.03,3.41 -4.64,3.86 -4.42,4.41 -4.19,4.96 -4.15,5.55 -4.12,6.14 -4.27,6.71 -4.42,7.29 -4.75,7.78 -5.08,8.28 -5.55,8.64 -6.02,9.00 -6.58,9.20 -7.14,9.39 -7.73,9.40 -8.33,9.40 -8.89,9.22 -9.46,9.03 -9.93,8.68 -10.41,8.32 -10.75,7.83 -11.08,7.35 -11.25,6.78 -11.41,6.20 -11.38,5.61 -11.36,5.02 -11.14,4.47 -10.93,3.91 -10.55,3.46 -10.17,3.00 -9.66,2.69 -9.15,2.38 -8.58,2.25 -8.00,2.12 -7.41,2.17 -6.82,2.23 -6.28,2.48 -5.73,2.72 -5.30,3.13 -4.87,3.53 -4.87,3.53 -4.87,3.53 -3.97,4.59 -3.08,5.66 -2.22,6.75 -1.35,7.84 -0.88,9.61 -0.41,11.38 -0.43,12.47 -0.45,13.56 -0.51,14.75 -0.58,15.94 -0.90,17.10 -1.22,18.27 -1.93,19.30 -2.63,20.33 -3.88,21.44 -5.12,22.55 -6.02,23.14 -6.92,23.73 -7.97,24.32 -9.03,24.91 -10.14,25.33 -11.24,25.76 -13.28,26.30 -15.31,26.85 -17.11,27.30 -18.91,27.75 -20.87,27.86 -22.82,27.97 -24.27,27.85 -25.73,27.73 -26.84,27.55 -27.95,27.38 -29.54,27.10 -31.12,26.83 -32.18,26.43 -33.23,26.04 -34.20,25.57 -35.16,25.09 -36.29,24.23 -37.41,23.37 -38.25,22.10 -39.08,20.83 -39.67,19.32 -40.26,17.82 -40.37,16.75 -40.47,15.68 -40.53,14.05 -40.59,12.42 -40.44,10.69 -40.29,8.97 -39.93,7.84 -39.58,6.71 -38.78,5.47 -37.97,4.23 -36.92,3.36 -35.86,2.49 -34.37,1.51 -32.88,0.53 -31.84,0.01 -30.80,-0.49 -28.85,-1.14 -26.91,-1.78 -25.69,-2.19 -24.48,-2.60 -23.39,-2.72 -22.31,-2.84 -21.13,-2.93 -19.95,-3.01 -19.63,-3.00 -19.31,-2.99 -19.01,-2.90 -18.70,-2.81 -18.42,-2.65 -18.14,-2.49 -17.91,-2.27 -17.68,-2.05 -17.51,-1.78 -17.34,-1.51 -17.24,-1.21 -17.14,-0.90 -17.11,-0.59 -17.08,-0.27 -17.13,0.04 -17.18,0.35 -17.31,0.65 -17.43,0.94 -17.62,1.20 -17.82,1.45 -18.06,1.66 -18.31,1.86 -18.60,2.00 -18.89,2.14 -19.20,2.20 -19.51,2.27 -19.51,2.27 L -19.51,2.27 Z"></path></g><g transform="translate(280.9523809523812 476.1538461538462) rotate(0 -3.2600732600735682 3.7606837606838326)" stroke="none" fill="#000000"><path d="M 0.26,0.45 Q 0.26,0.45 0.10,1.54 -0.06,2.62 -1.28,6.09 -2.50,9.56 -2.87,9.79 -3.24,10.02 -3.67,10.12 -4.10,10.22 -4.53,10.18 -4.97,10.14 -5.37,9.96 -5.77,9.78 -6.09,9.48 -6.42,9.19 -6.63,8.80 -6.84,8.42 -6.91,7.98 -6.99,7.55 -6.93,7.12 -6.86,6.69 -6.66,6.30 -6.46,5.90 -6.15,5.60 -5.83,5.29 -5.44,5.10 -5.04,4.91 -4.61,4.86 -4.17,4.81 -3.74,4.90 -3.31,4.99 -2.93,5.21 -2.55,5.43 -2.27,5.76 -1.98,6.09 -1.81,6.49 -1.64,6.90 -1.61,7.34 -1.58,7.77 -1.69,8.20 -1.81,8.62 -2.05,8.99 -2.29,9.35 -2.63,9.62 -2.98,9.89 -3.39,10.04 -3.81,10.18 -4.25,10.19 -4.68,10.20 -5.10,10.06 -5.52,9.93 -5.87,9.67 -6.22,9.41 -6.47,9.05 -6.73,8.69 -6.85,8.27 -6.97,7.84 -6.95,7.41 -6.93,6.97 -6.78,6.56 -6.62,6.15 -6.34,5.81 -6.06,5.47 -6.06,5.47 -6.06,5.47 -5.62,3.58 -5.19,1.69 -4.96,0.62 -4.73,-0.45 -4.64,-0.74 -4.55,-1.04 -4.39,-1.30 -4.23,-1.56 -4.02,-1.78 -3.80,-2.00 -3.54,-2.15 -3.28,-2.31 -2.98,-2.40 -2.69,-2.50 -2.39,-2.52 -2.08,-2.53 -1.78,-2.48 -1.48,-2.42 -1.20,-2.30 -0.92,-2.17 -0.67,-1.98 -0.43,-1.80 -0.24,-1.55 -0.05,-1.31 0.06,-1.03 0.19,-0.75 0.24,-0.45 0.30,-0.15 0.28,0.14 0.26,0.45 0.26,0.45 L 0.26,0.45 Z"></path></g><g transform="translate(279.05982905982864 475.8119658119658) rotate(0 5.470085470085678 0)" stroke="none" fill="#000000"><path d="M 0,-2.57 Q 0,-2.57 1.08,-2.60 2.16,-2.63 3.39,-2.71 4.62,-2.79 5.85,-2.88 7.09,-2.97 9.01,-3.02 10.94,-3.06 11.42,-2.98 11.91,-2.90 12.35,-2.66 12.79,-2.43 13.13,-2.07 13.47,-1.71 13.68,-1.26 13.88,-0.81 13.94,-0.32 13.99,0.16 13.88,0.64 13.78,1.13 13.52,1.55 13.27,1.98 12.89,2.30 12.51,2.62 12.05,2.80 11.59,2.98 11.10,3.01 10.60,3.04 10.13,2.90 9.65,2.77 9.24,2.49 8.83,2.22 8.53,1.82 8.23,1.43 8.07,0.96 7.91,0.49 7.91,-0.00 7.92,-0.49 8.07,-0.96 8.23,-1.43 8.53,-1.82 8.83,-2.22 9.24,-2.50 9.65,-2.77 10.13,-2.91 10.60,-3.04 11.10,-3.01 11.59,-2.98 12.05,-2.80 12.51,-2.62 12.89,-2.30 13.27,-1.98 13.52,-1.55 13.78,-1.13 13.88,-0.64 13.99,-0.16 13.94,0.32 13.88,0.81 13.68,1.26 13.47,1.71 13.13,2.07 12.79,2.43 12.35,2.66 11.91,2.90 11.42,2.98 10.93,3.06 10.93,3.06 10.94,3.06 9.01,3.02 7.09,2.97 5.85,2.88 4.62,2.79 3.39,2.71 2.16,2.63 1.08,2.60 0,2.57 -0.30,2.54 -0.61,2.50 -0.90,2.39 -1.19,2.28 -1.45,2.10 -1.71,1.93 -1.91,1.69 -2.12,1.46 -2.26,1.18 -2.41,0.91 -2.48,0.61 -2.56,0.31 -2.56,-0.00 -2.56,-0.31 -2.48,-0.61 -2.41,-0.91 -2.26,-1.18 -2.12,-1.46 -1.91,-1.69 -1.70,-1.93 -1.45,-2.10 -1.19,-2.28 -0.90,-2.39 -0.61,-2.50 -0.30,-2.54 0.00,-2.57 0.00,-2.57 L 0,-2.57 Z"></path></g></svg>